HIERARCHY
ROOT joint_Root
{
	OFFSET 0.0 0.0 0.0
	CHANNELS 6 Xposition Yposition Zposition Zrotation Xrotation Yrotation 
	JOINT Hips
	{
		OFFSET 4.5925 91.4895 -427.239
		CHANNELS 6 Xposition Yposition Zposition Zrotation Xrotation Yrotation 
		JOINT Spine
		{
			OFFSET 15.7357 0.0 0.0
			CHANNELS 6 Xposition Yposition Zposition Zrotation Xrotation Yrotation 
			JOINT Chest
			{
				OFFSET 8.98455 -0.406207 0.0
				CHANNELS 6 Xposition Yposition Zposition Zrotation Xrotation Yrotation 
				JOINT Neck
				{
					OFFSET 16.3773 0.0 0.0
					CHANNELS 6 Xposition Yposition Zposition Zrotation Xrotation Yrotation 
					JOINT Head
					{
						OFFSET 6.45672 0.0 0.0
						CHANNELS 6 Xposition Yposition Zposition Zrotation Xrotation Yrotation 
						End Site
						{
							OFFSET 0.0 0.0 0.0
						}
					}
				}
				JOINT Shoulder_L
				{
					OFFSET 12.9942 -0.242716 4.98039
					CHANNELS 6 Xposition Yposition Zposition Zrotation Xrotation Yrotation 
					JOINT UpperArm_L
					{
						OFFSET 5.34809 0.0 0.0
						CHANNELS 6 Xposition Yposition Zposition Zrotation Xrotation Yrotation 
						JOINT LowerArm_L
						{
							OFFSET 24.3286 1.87007e-05 0.0
							CHANNELS 6 Xposition Yposition Zposition Zrotation Xrotation Yrotation 
							JOINT Hand_L
							{
								OFFSET 22.2916 0.0 0.0
								CHANNELS 6 Xposition Yposition Zposition Zrotation Xrotation Yrotation 
								End Site
								{
									OFFSET 0.0 0.0 0.0
								}
							}
						}
					}
				}
				JOINT Shoulder_R
				{
					OFFSET 12.9945 -0.242716 -4.98039
					CHANNELS 6 Xposition Yposition Zposition Zrotation Xrotation Yrotation 
					JOINT UpperArm_R
					{
						OFFSET -5.34813 0.0 0.0
						CHANNELS 6 Xposition Yposition Zposition Zrotation Xrotation Yrotation 
						JOINT LowerArm_R
						{
							OFFSET -24.3289 0.000322201 0.0
							CHANNELS 6 Xposition Yposition Zposition Zrotation Xrotation Yrotation 
							JOINT Hand_R
							{
								OFFSET -22.2915 -0.000108084 0.0
								CHANNELS 6 Xposition Yposition Zposition Zrotation Xrotation Yrotation 
								End Site
								{
									OFFSET 0.0 0.0 0.0
								}
							}
						}
					}
				}
			}
		}
		JOINT UpperLeg_L
		{
			OFFSET -2.19248 -6.46944 0.0
			CHANNELS 6 Xposition Yposition Zposition Zrotation Xrotation Yrotation 
			JOINT LowerLeg_L
			{
				OFFSET 39.0811 0.0 -1.23785e-05
				CHANNELS 6 Xposition Yposition Zposition Zrotation Xrotation Yrotation 
				JOINT Foot_L
				{
					OFFSET 40.9854 0.0 -1.26872e-05
					CHANNELS 6 Xposition Yposition Zposition Zrotation Xrotation Yrotation 
					JOINT Toes_L
					{
						OFFSET 11.7543 0.0 0.0
						CHANNELS 6 Xposition Yposition Zposition Zrotation Xrotation Yrotation 
						End Site
						{
							OFFSET 0.0 0.0 0.0
						}
					}
				}
			}
		}
		JOINT UpperLeg_R
		{
			OFFSET -2.19251 6.46944 0.0
			CHANNELS 6 Xposition Yposition Zposition Zrotation Xrotation Yrotation 
			JOINT LowerLeg_R
			{
				OFFSET -39.0811 -0.00228153 -0.0401928
				CHANNELS 6 Xposition Yposition Zposition Zrotation Xrotation Yrotation 
				JOINT Foot_R
				{
					OFFSET -40.9854 0.0 0.0
					CHANNELS 6 Xposition Yposition Zposition Zrotation Xrotation Yrotation 
					JOINT Toes_R
					{
						OFFSET -11.7543 0.0 0.0
						CHANNELS 6 Xposition Yposition Zposition Zrotation Xrotation Yrotation 
						End Site
						{
							OFFSET 0.0 0.0 0.0
						}
					}
				}
			}
		}
	}
}
MOTION
Frames:	4
Frame Time:	0.0333333
0.000000 0.000000 0.000000 0.000000 0.000000 -0.000000 -8.430130 89.210500 -3.544850 82.725100 -5.922790 14.070900 15.735700 0.000005 -0.000001 85.811900 82.816400 -83.891800 8.984550 -0.406207 -0.000000 6.584460 -1.065750 3.897270 16.377300 -0.000001 -0.000001 34.561700 -3.738370 2.578630 6.456720 -0.000001 -0.000000 20.525600 -4.926090 -0.578027 12.994200 -0.242716 4.980390 -86.774600 -7.998780 -67.953300 5.348090 -0.000007 -0.000001 -60.291800 -46.141900 -82.421300 24.328600 0.000019 0.000005 20.748700 7.582560 -70.796100 22.291600 -0.000001 0.000005 19.856400 5.322790 -0.576274 12.994500 -0.242716 -4.980390 91.477900 -5.046690 -73.653700 -5.348130 -0.000001 -0.000004 -50.159100 -39.801500 -76.401900 -24.328900 0.000322 -0.000009 4.289000 1.442110 -71.456500 -22.291500 -0.000108 -0.000004 24.017700 5.451010 -4.675720 -2.192480 -6.469440 -0.000000 -161.082000 -10.903600 -1.556080 39.081100 -0.000007 -0.000012 -0.393662 0.476321 39.573400 40.985400 -0.000006 -0.000013 -6.334420 3.047270 -71.612400 11.754300 -0.000000 0.000003 -0.000033 -0.000389 -16.592800 -2.192510 6.469440 -0.000001 -174.871000 21.872600 -177.303000 -39.081100 -0.002282 -0.040193 -0.147691 0.227435 33.578700 -40.985400 0.000008 0.000006 8.788330 10.442100 -72.655100 -11.754300 -0.000006 -0.000006 -0.002463 -0.034374 -17.970900
0.000000 0.000000 0.000000 0.000000 0.000000 -0.000000 -8.074930 89.297100 -3.521090 82.935200 -6.174900 14.035800 15.735700 0.000005 -0.000001 86.226500 82.854400 -84.454600 8.984550 -0.406207 -0.000000 6.512220 -0.957030 3.594360 16.377300 -0.000001 -0.000001 34.592400 -3.735630 2.257810 6.456720 -0.000001 -0.000000 20.329000 -4.892290 -0.788262 12.994200 -0.242716 4.980390 -86.722600 -8.078930 -67.831000 5.348090 -0.000007 -0.000001 -60.583100 -46.109600 -82.668300 24.328600 0.000019 0.000005 20.803200 7.437150 -71.186400 22.291600 -0.000001 0.000005 19.852800 5.322330 -0.563006 12.994500 -0.242716 -4.980390 91.497700 -5.124030 -73.682700 -5.348130 -0.000001 -0.000004 -50.607600 -39.743500 -76.524600 -24.328900 0.000322 -0.000009 4.352520 1.456740 -71.536900 -22.291500 -0.000108 -0.000004 24.007700 5.452540 -4.730650 -2.192480 -6.469440 -0.000000 -161.542000 -11.112500 -1.357450 39.081100 -0.000007 -0.000012 -0.390650 0.477240 39.303300 40.985400 -0.000006 -0.000013 -6.136210 2.781790 -71.589400 11.754300 -0.000000 0.000003 -0.000036 -0.000425 -16.594100 -2.192510 6.469440 -0.000001 -175.266000 21.531500 -177.291000 -39.081100 -0.002282 -0.040193 -0.148129 0.229303 33.439600 -40.985400 0.000008 0.000006 8.539910 10.603800 -72.481800 -11.754300 -0.000006 -0.000006 -0.002144 -0.030510 -17.813800
0.000000 0.000000 0.000000 0.000000 0.000000 -0.000000 -7.706530 89.378300 -3.492690 83.184400 -6.399120 13.937300 15.735700 0.000005 -0.000001 86.586900 82.916500 -84.976900 8.984550 -0.406207 -0.000000 6.390510 -0.860230 3.264490 16.377300 -0.000001 -0.000001 34.575700 -3.749710 1.953660 6.456720 -0.000001 -0.000000 20.143800 -4.909790 -1.005440 12.994200 -0.242716 4.980390 -86.676800 -8.153430 -67.734500 5.348090 -0.000007 -0.000001 -60.770400 -46.083000 -82.753700 24.328600 0.000019 0.000005 20.588100 7.168130 -71.624300 22.291600 -0.000001 0.000005 19.891500 5.322050 -0.554840 12.994500 -0.242716 -4.980390 91.519900 -5.206010 -73.699500 -5.348130 -0.000001 -0.000004 -51.088000 -39.654600 -76.637700 -24.328900 0.000322 -0.000009 4.392080 1.460660 -71.646600 -22.291500 -0.000108 -0.000004 24.175100 5.452310 -4.722490 -2.192480 -6.469440 -0.000000 -162.116000 -11.193000 -1.243900 39.081100 -0.000007 -0.000012 -0.387895 0.478411 39.036000 40.985400 -0.000006 -0.000013 -5.973070 2.389220 -71.584600 11.754300 -0.000000 0.000003 -0.000040 -0.000469 -16.595800 -2.192510 6.469440 -0.000001 -175.658000 21.148400 -177.389000 -39.081100 -0.002282 -0.040193 -0.151025 0.234535 33.344300 -40.985400 0.000008 0.000006 8.257900 10.657400 -72.316100 -11.754300 -0.000006 -0.000006 -0.002476 -0.034527 -17.977100
0.000000 0.000000 0.000000 0.000000 0.000000 -0.000000 -7.330590 89.463200 -3.467050 83.434300 -6.570860 13.874000 15.735700 0.000005 -0.000001 86.968700 82.963600 -85.519900 8.984550 -0.406207 -0.000000 6.298700 -0.760543 2.936310 16.377300 -0.000001 -0.000001 34.539100 -3.830730 1.695300 6.456720 -0.000001 -0.000000 19.907000 -4.951560 -1.215460 12.994200 -0.242716 4.980390 -86.646300 -8.211340 -67.691600 5.348090 -0.000007 -0.000001 -60.924300 -46.060900 -82.786200 24.328600 0.000019 0.000005 20.586300 6.954300 -72.133000 22.291600 -0.000001 0.000005 19.804900 5.319700 -0.487138 12.994500 -0.242716 -4.980390 91.545200 -5.301160 -73.723200 -5.348130 -0.000001 -0.000004 -51.576300 -39.641200 -76.681100 -24.328900 0.000322 -0.000009 4.293360 1.410110 -71.858000 -22.291500 -0.000108 -0.000004 24.279500 5.452140 -4.716300 -2.192480 -6.469440 -0.000000 -162.703000 -11.216400 -1.113170 39.081100 -0.000007 -0.000012 -0.390435 0.486569 38.745300 40.985400 -0.000006 -0.000013 -5.798210 2.006930 -71.560200 11.754300 -0.000000 0.000003 -0.000042 -0.000491 -16.596700 -2.192510 6.469440 -0.000001 -176.084000 20.776300 -177.435000 -39.081100 -0.002282 -0.040193 -0.159803 0.249021 33.223200 -40.985400 0.000008 0.000006 7.958070 10.711600 -72.141600 -11.754300 -0.000006 -0.000006 -0.002524 -0.035095 -18.000200
